<svg id="Layer_1" data-name="Layer 1" xmlns="http://www.w3.org/2000/svg" viewBox="0 0 767.9 359.99"><defs><style>.cls-1{opacity:0.3;}.cls-2{fill:#2691ea;}</style></defs><g class="cls-1"><path class="cls-2" d="M139.2,253.5H100.42v6.74H139.2Z"/><path class="cls-2" d="M185.73,253.5H147v6.74h38.78Z"/><path class="cls-2" d="M232.26,253.5H193.49v6.74h38.77Z"/><path class="cls-2" d="M139.2,264.62H100.42v6.74H139.2Z"/><path class="cls-2" d="M185.73,264.62H147v6.74h38.78Z"/><path class="cls-2" d="M232.26,264.62H193.49v6.74h38.77Z"/><path class="cls-2" d="M139.2,275.75H100.42v6.74H139.2Z"/><path class="cls-2" d="M185.73,275.75H147v6.74h38.78Z"/><path class="cls-2" d="M232.26,275.75H193.49v6.74h38.77Z"/><path class="cls-2" d="M139.2,286.87H100.42v6.74H139.2Z"/><path class="cls-2" d="M185.73,286.87H147v6.74h38.78Z"/><path class="cls-2" d="M232.26,286.87H193.48v6.74h38.78Z"/><path class="cls-2" d="M139.2,298H100.42v6.74H139.2Z"/><path class="cls-2" d="M185.73,298H147v6.74h38.78Z"/><path class="cls-2" d="M232.26,298H193.49v6.74h38.77Z"/><path class="cls-2" d="M139.2,309.12H100.42v6.75H139.2Z"/><path class="cls-2" d="M185.73,309.12H147v6.75h38.78Z"/><path class="cls-2" d="M232.26,309.12H193.49v6.75h38.77Z"/><path class="cls-2" d="M139.2,320.25H100.42V327H139.2Z"/><path class="cls-2" d="M185.73,320.25H147V327h38.78Z"/><path class="cls-2" d="M232.26,320.25H193.49V327h38.77Z"/><path class="cls-2" d="M139.2,331.37H100.42v6.75H139.2Z"/><path class="cls-2" d="M185.73,331.37H147v6.75h38.78Z"/><path class="cls-2" d="M232.26,331.37H193.49v6.75h38.77Z"/><path class="cls-2" d="M139.2,342.5H100.42v6.74H139.2Z"/><path class="cls-2" d="M185.73,342.5H147v6.74h38.78Z"/><path class="cls-2" d="M232.26,342.5H193.49v6.74h38.77Z"/><rect class="cls-2" x="100.42" y="353.63" width="38.78" height="6.36"/><rect class="cls-2" x="146.95" y="353.63" width="38.78" height="6.36"/><rect class="cls-2" x="193.49" y="353.63" width="38.78" height="6.36"/><polygon class="cls-2" points="139.41 359.99 139.41 343.78 193.28 343.78 193.28 359.99 195.14 359.99 195.14 341.92 137.55 341.92 137.55 359.99 139.41 359.99"/><rect class="cls-2" x="142.91" y="346.91" width="3.82" height="13.08"/><rect class="cls-2" x="151.52" y="346.91" width="3.82" height="13.08"/><rect class="cls-2" x="160.13" y="346.91" width="3.83" height="13.08"/><rect class="cls-2" x="168.74" y="346.91" width="3.82" height="13.08"/><rect class="cls-2" x="177.35" y="346.91" width="3.82" height="13.08"/><rect class="cls-2" x="185.95" y="346.91" width="3.83" height="13.08"/><path class="cls-2" d="M104.78,290.41H.11v1.64H104.78Z"/><path class="cls-2" d="M104.78,301.66H.12v1.65H104.78Z"/><path class="cls-2" d="M104.78,312.92H.12v1.64H104.78Z"/><path class="cls-2" d="M104.78,324.18H.12v1.65H104.78Z"/><path class="cls-2" d="M104.78,335.44H.12v1.64H104.78Z"/><path class="cls-2" d="M.11,346.69v1.65H16.63l-5.74-1.65Z"/><path class="cls-2" d="M104.78,346.69H10.89l5.74,1.65h88.15Z"/><path class="cls-2" d="M.11,358v1.64H44.3c-.87-.58-1.77-1.12-2.68-1.64Z"/><path class="cls-2" d="M104.78,358H41.62c.91.52,1.81,1.06,2.68,1.64h60.48Z"/><path class="cls-2" d="M595.1,265.87h-9.39v9.39h9.39Z"/><path class="cls-2" d="M611.52,265.87h-9.38v9.39h9.38Z"/><path class="cls-2" d="M628,265.87h-9.39v9.39H628Z"/><path class="cls-2" d="M644.37,265.87H635v9.39h9.38Z"/><path class="cls-2" d="M660.8,265.87h-9.39v9.39h9.39Z"/><path class="cls-2" d="M677.22,265.87h-9.38v9.39h9.38Z"/><path class="cls-2" d="M693.65,265.87h-9.38v9.39h9.38Z"/><path class="cls-2" d="M595.1,280.15h-9.39v9.38h9.39Z"/><path class="cls-2" d="M611.52,280.15h-9.38v9.38h9.38Z"/><path class="cls-2" d="M628,280.15h-9.39v9.38H628Z"/><path class="cls-2" d="M644.37,280.15H635v9.38h9.38Z"/><path class="cls-2" d="M660.8,280.15h-9.39v9.38h9.39Z"/><path class="cls-2" d="M677.22,280.15h-9.38v9.38h9.38Z"/><path class="cls-2" d="M693.65,280.15h-9.38v9.38h9.38Z"/><path class="cls-2" d="M595.1,294.42h-9.39v9.38h9.39Z"/><path class="cls-2" d="M611.52,294.42h-9.38v9.38h9.38Z"/><path class="cls-2" d="M628,294.42h-9.39v9.38H628Z"/><path class="cls-2" d="M644.37,294.42H635v9.38h9.38Z"/><path class="cls-2" d="M660.8,294.42h-9.39v9.38h9.39Z"/><path class="cls-2" d="M677.22,294.42h-9.38v9.38h9.38Z"/><path class="cls-2" d="M693.65,294.42h-9.38v9.38h9.38Z"/><path class="cls-2" d="M595.1,308.69h-9.39v9.39h9.39Z"/><path class="cls-2" d="M611.52,308.69h-9.38v9.39h9.38Z"/><path class="cls-2" d="M628,308.69h-9.39v9.39H628Z"/><path class="cls-2" d="M644.37,308.69H635v9.39h9.38Z"/><path class="cls-2" d="M660.8,308.69h-9.39v9.39h9.39Z"/><path class="cls-2" d="M677.22,308.69h-9.38v9.39h9.38Z"/><path class="cls-2" d="M693.65,308.69h-9.38v9.39h9.38Z"/><path class="cls-2" d="M595.1,323h-9.39v9.38h9.39Z"/><path class="cls-2" d="M611.52,323h-9.38v9.38h9.38Z"/><path class="cls-2" d="M628,323h-9.39v9.38H628Z"/><path class="cls-2" d="M644.37,323H635v9.38h9.38Z"/><path class="cls-2" d="M660.8,323h-9.39v9.38h9.39Z"/><path class="cls-2" d="M677.22,323h-9.38v9.38h9.38Z"/><path class="cls-2" d="M693.65,323h-9.38v9.38h9.38Z"/><path class="cls-2" d="M595.1,337.24h-9.39v9.39h9.39Z"/><path class="cls-2" d="M611.52,337.24h-9.38v9.39h9.38Z"/><path class="cls-2" d="M628,337.24h-9.39v9.39H628Z"/><path class="cls-2" d="M644.37,337.24H635v9.39h9.38Z"/><path class="cls-2" d="M660.8,337.24h-9.39v9.39h9.39Z"/><path class="cls-2" d="M677.22,337.24h-9.38v9.39h9.38Z"/><path class="cls-2" d="M693.65,337.24h-9.38v9.39h9.38Z"/><rect class="cls-2" x="585.71" y="351.51" width="9.38" height="8.47"/><rect class="cls-2" x="602.14" y="351.51" width="9.38" height="8.47"/><rect class="cls-2" x="618.56" y="351.51" width="9.39" height="8.47"/><rect class="cls-2" x="634.99" y="351.51" width="9.38" height="8.47"/><rect class="cls-2" x="651.41" y="351.51" width="9.38" height="8.47"/><rect class="cls-2" x="667.84" y="351.51" width="9.39" height="8.47"/><rect class="cls-2" x="684.27" y="351.51" width="9.38" height="8.47"/><path class="cls-2" d="M598.46,235.48h-5.74v8h5.74Z"/><path class="cls-2" d="M606.47,235.48h-5.73v8h5.73Z"/><path class="cls-2" d="M614.49,235.48h-5.73v8h5.73Z"/><path class="cls-2" d="M622.51,235.48h-5.73v8h5.73Z"/><path class="cls-2" d="M630.53,235.48h-5.74v8h5.74Z"/><path class="cls-2" d="M638.54,235.48h-5.73v8h5.73Z"/><path class="cls-2" d="M646.56,235.48h-5.74v8h5.74Z"/><path class="cls-2" d="M654.57,235.48h-5.73v8h5.73Z"/><path class="cls-2" d="M662.59,235.48h-5.73v8h5.73Z"/><path class="cls-2" d="M670.61,235.48h-5.74v8h5.74Z"/><path class="cls-2" d="M678.63,235.48h-5.74v8h5.74Z"/><path class="cls-2" d="M686.64,235.48h-5.73v8h5.73Z"/><path class="cls-2" d="M598.46,247.45h-5.74v8h5.74Z"/><path class="cls-2" d="M606.47,247.45h-5.73v8h5.73Z"/><path class="cls-2" d="M614.49,247.45h-5.73v8h5.73Z"/><path class="cls-2" d="M622.51,247.45h-5.73v8h5.73Z"/><path class="cls-2" d="M630.53,247.45h-5.74v8h5.74Z"/><path class="cls-2" d="M638.54,247.45h-5.73v8h5.73Z"/><path class="cls-2" d="M646.56,247.45h-5.74v8h5.74Z"/><path class="cls-2" d="M654.57,247.45h-5.73v8h5.73Z"/><path class="cls-2" d="M662.59,247.45h-5.73v8h5.73Z"/><path class="cls-2" d="M670.61,247.45h-5.74v8h5.74Z"/><path class="cls-2" d="M678.63,247.45h-5.74v8h5.74Z"/><path class="cls-2" d="M686.64,247.45h-5.73v8h5.73Z"/><path class="cls-2" d="M671.09,145.7H595.43v2.6h75.66Z"/><path class="cls-2" d="M683.93,151.55H608.27v2.61h75.66Z"/><path class="cls-2" d="M671.09,157.4H595.43V160h75.66Z"/><path class="cls-2" d="M683.93,163.27H608.27v2.59h75.66Z"/><path class="cls-2" d="M671.09,169.12H595.43v2.61h75.66Z"/><path class="cls-2" d="M683.93,175H608.27v2.6h75.66Z"/><path class="cls-2" d="M671.09,180.83H595.43v2.61h75.66Z"/><path class="cls-2" d="M683.93,186.68H608.27v2.61h75.66Z"/><path class="cls-2" d="M671.09,192.55H595.43v2.59h75.66Z"/><path class="cls-2" d="M683.93,198.4H608.27V201h75.66Z"/><path class="cls-2" d="M671.09,204.25H595.43v2.61h75.66Z"/><path class="cls-2" d="M683.93,210.11H608.27v2.6h75.66Z"/><path class="cls-2" d="M671.09,216H595.43v2.61h75.66Z"/><path class="cls-2" d="M683.93,221.82H608.27v2.61h75.66Z"/><path class="cls-2" d="M604.37,129.66h-1v7h1Z"/><path class="cls-2" d="M607.06,129.66h-1v7h1Z"/><path class="cls-2" d="M609.75,129.66h-1v7h1Z"/><path class="cls-2" d="M612.44,129.66h-1v7h1Z"/><path class="cls-2" d="M615.13,129.66h-1v7h1Z"/><path class="cls-2" d="M617.82,129.66h-1v7h1Z"/><path class="cls-2" d="M620.51,129.66h-1v7h1Z"/><path class="cls-2" d="M623.21,129.66h-1v7h1Z"/><path class="cls-2" d="M625.89,129.66h-1v7h1Z"/><path class="cls-2" d="M628.58,129.66h-1v7h1Z"/><path class="cls-2" d="M631.27,129.66h-1v7h1Z"/><path class="cls-2" d="M649.29,129.66h-1v7h1Z"/><path class="cls-2" d="M652,129.66h-1v7h1Z"/><path class="cls-2" d="M654.6,129.66h-1v7h1Z"/><path class="cls-2" d="M657.25,129.66h-1v7h1Z"/><path class="cls-2" d="M659.9,129.66h-1v7h1Z"/><path class="cls-2" d="M662.56,129.66h-1v7h1Z"/><path class="cls-2" d="M665.21,129.66h-1v7h1Z"/><path class="cls-2" d="M667.86,129.66h-1v7h1Z"/><path class="cls-2" d="M670.52,129.66h-1v7h1Z"/><path class="cls-2" d="M673.17,129.66h-1v7h1Z"/><path class="cls-2" d="M675.82,129.66h-1v7h1Z"/><path class="cls-2" d="M345.13,98.1H331.81v3.45h13.32Z"/><path class="cls-2" d="M363,98.1H349.66v3.45H363Z"/><path class="cls-2" d="M386.5,98.1H373.18v3.45H386.5Z"/><path class="cls-2" d="M345.13,108.31H331.81v3.44h13.32Z"/><path class="cls-2" d="M363,108.31H349.66v3.44H363Z"/><path class="cls-2" d="M386.5,108.31H373.18v3.44H386.5Z"/><path class="cls-2" d="M345.13,118.51H331.81V122h13.32Z"/><path class="cls-2" d="M363,118.51H349.66V122H363Z"/><path class="cls-2" d="M386.5,118.51H373.18V122H386.5Z"/><path class="cls-2" d="M345.13,128.71H331.81v3.45h13.32Z"/><path class="cls-2" d="M363,128.71H349.66v3.45H363Z"/><path class="cls-2" d="M386.5,128.71H373.18v3.45H386.5Z"/><path class="cls-2" d="M345.13,138.91H331.81v3.45h13.32Z"/><path class="cls-2" d="M363,138.91H349.66v3.45H363Z"/><path class="cls-2" d="M386.5,138.91H373.18v3.45H386.5Z"/><path class="cls-2" d="M345.13,149.11H331.81v3.45h13.32Z"/><path class="cls-2" d="M363,149.11H349.66v3.45H363Z"/><path class="cls-2" d="M386.5,149.11H373.18v3.45H386.5Z"/><path class="cls-2" d="M345.13,159.31H331.81v3.45h13.32Z"/><path class="cls-2" d="M363,159.31H349.66v3.45H363Z"/><path class="cls-2" d="M386.5,159.31H373.18v3.45H386.5Z"/><path class="cls-2" d="M345.13,169.51H331.81V173h13.32Z"/><path class="cls-2" d="M363,169.51H349.66V173H363Z"/><path class="cls-2" d="M386.5,169.51H373.18V173H386.5Z"/><path class="cls-2" d="M345.13,179.72H331.81v3.44h13.32Z"/><path class="cls-2" d="M363,179.72H349.66v3.44H363Z"/><path class="cls-2" d="M386.5,179.72H373.18v3.44H386.5Z"/><path class="cls-2" d="M345.13,189.92H331.81v3.44h13.32Z"/><path class="cls-2" d="M363,189.92H349.66v3.44H363Z"/><path class="cls-2" d="M386.5,189.92H373.18v3.44H386.5Z"/><path class="cls-2" d="M345.13,200.12H331.81v3.44h13.32Z"/><path class="cls-2" d="M363,200.12H349.66v3.44H363Z"/><path class="cls-2" d="M386.5,200.12H373.18v3.44H386.5Z"/><path class="cls-2" d="M345.13,210.32H331.81v3.45h13.32Z"/><path class="cls-2" d="M363,210.32H349.66v3.45H363Z"/><path class="cls-2" d="M386.5,210.32H373.18v3.45H386.5Z"/><path class="cls-2" d="M345.13,220.52H331.81V224h13.32Z"/><path class="cls-2" d="M363,220.52H349.66V224H363Z"/><path class="cls-2" d="M386.5,220.52H373.18V224H386.5Z"/><path class="cls-2" d="M345.13,230.72H331.81v3.44h13.32Z"/><path class="cls-2" d="M363,230.72H349.66v3.44H363Z"/><path class="cls-2" d="M386.5,230.72H373.18v3.44H386.5Z"/><path class="cls-2" d="M345.13,240.92H331.81v3.45h13.32Z"/><path class="cls-2" d="M363,240.92H349.66v3.45H363Z"/><path class="cls-2" d="M386.5,240.92H373.18v3.45H386.5Z"/><path class="cls-2" d="M345.13,251.12H331.81v3.45h13.32Z"/><path class="cls-2" d="M363,251.12H349.66v3.45H363Z"/><path class="cls-2" d="M386.5,251.12H373.18v3.45H386.5Z"/><path class="cls-2" d="M345.13,261.33H331.81v3.44h13.32Z"/><path class="cls-2" d="M363,261.33H349.66v3.44H363Z"/><path class="cls-2" d="M386.5,261.33H373.18v3.44H386.5Z"/><path class="cls-2" d="M345.13,271.53H331.81V275h13.32Z"/><path class="cls-2" d="M363,271.53H349.66V275H363Z"/><path class="cls-2" d="M386.5,271.53H373.18V275H386.5Z"/><path class="cls-2" d="M345.13,281.73H331.81v3.44h13.32Z"/><path class="cls-2" d="M363,281.73H349.66v3.44H363Z"/><path class="cls-2" d="M386.5,281.73H373.18v3.44H386.5Z"/><path class="cls-2" d="M345.13,291.93H331.81v3.45h13.32Z"/><path class="cls-2" d="M363,291.93H349.66v3.45H363Z"/><path class="cls-2" d="M386.5,291.93H373.18v3.45H386.5Z"/><path class="cls-2" d="M345.13,302.13H331.81v3.44h13.32Z"/><path class="cls-2" d="M363,302.13H349.66v3.44H363Z"/><path class="cls-2" d="M386.5,302.13H373.18v3.44H386.5Z"/><path class="cls-2" d="M345.13,312.33H331.81v3.45h13.32Z"/><path class="cls-2" d="M363,312.33H349.66v3.45H363Z"/><path class="cls-2" d="M386.5,312.33H373.18v3.45H386.5Z"/><path class="cls-2" d="M345.13,322.54H331.81V326h13.32Z"/><path class="cls-2" d="M363,322.54H349.66V326H363Z"/><path class="cls-2" d="M386.5,322.54H373.18V326H386.5Z"/><path class="cls-2" d="M345.13,332.73H331.81v3.45h13.32Z"/><path class="cls-2" d="M363,332.73H349.66v3.45H363Z"/><path class="cls-2" d="M386.5,332.73H373.18v3.45H386.5Z"/><path class="cls-2" d="M345.13,342.93H331.81v3.45h13.32Z"/><path class="cls-2" d="M363,342.93H349.66v3.45H363Z"/><path class="cls-2" d="M386.5,342.93H373.18v3.45H386.5Z"/><path class="cls-2" d="M345.13,353.14H331.81v3.44h13.32Z"/><path class="cls-2" d="M363,353.14H349.66v3.44H363Z"/><path class="cls-2" d="M386.5,353.14H373.18v3.44H386.5Z"/><path class="cls-2" d="M708.45,241.84h-5.63v13.07h5.63Z"/><path class="cls-2" d="M718.24,241.84h-5.63v13.07h5.63Z"/><path class="cls-2" d="M733.47,241.84h-5.62v13.07h5.62Z"/><path class="cls-2" d="M743.27,241.84h-5.63v13.07h5.63Z"/><path class="cls-2" d="M758.5,241.84h-5.63v13.07h5.63Z"/><rect class="cls-2" x="762.66" y="241.84" width="5.24" height="13.06"/><path class="cls-2" d="M708.45,259.77h-5.63v13.06h5.63Z"/><path class="cls-2" d="M718.24,259.77h-5.63v13.06h5.63Z"/><path class="cls-2" d="M733.47,259.77h-5.62v13.06h5.62Z"/><path class="cls-2" d="M743.27,259.77h-5.63v13.06h5.63Z"/><path class="cls-2" d="M758.5,259.77h-5.63v13.06h5.63Z"/><rect class="cls-2" x="762.66" y="259.77" width="5.24" height="13.06"/><path class="cls-2" d="M708.45,277.69h-5.63v13.06h5.63Z"/><path class="cls-2" d="M718.24,277.69h-5.63v13.06h5.63Z"/><path class="cls-2" d="M733.47,277.69h-5.62v13.06h5.62Z"/><path class="cls-2" d="M743.27,277.69h-5.63v13.06h5.63Z"/><path class="cls-2" d="M758.5,277.69h-5.63v13.06h5.63Z"/><rect class="cls-2" x="762.66" y="277.69" width="5.24" height="13.06"/><path class="cls-2" d="M708.45,295.62h-5.63v13.06h5.63Z"/><path class="cls-2" d="M718.24,295.62h-5.63v13.06h5.63Z"/><path class="cls-2" d="M733.47,295.62h-5.62v13.06h5.62Z"/><path class="cls-2" d="M743.27,295.62h-5.63v13.06h5.63Z"/><path class="cls-2" d="M758.5,295.62h-5.63v13.06h5.63Z"/><rect class="cls-2" x="762.66" y="295.62" width="5.24" height="13.06"/><path class="cls-2" d="M708.45,313.54h-5.63V326.6h5.63Z"/><path class="cls-2" d="M718.24,313.54h-5.63V326.6h5.63Z"/><path class="cls-2" d="M733.47,313.54h-5.62V326.6h5.62Z"/><path class="cls-2" d="M743.27,313.54h-5.63V326.6h5.63Z"/><path class="cls-2" d="M758.5,313.54h-5.63V326.6h5.63Z"/><rect class="cls-2" x="762.66" y="313.54" width="5.24" height="13.06"/><path class="cls-2" d="M708.45,331.47h-5.63v13h5.63Z"/><path class="cls-2" d="M718.24,331.47h-5.63v13h5.63Z"/><path class="cls-2" d="M733.47,331.47h-5.62v13h5.62Z"/><path class="cls-2" d="M743.27,331.47h-5.63v13h5.63Z"/><path class="cls-2" d="M758.5,331.47h-5.63v13h5.63Z"/><rect class="cls-2" x="762.66" y="331.47" width="5.24" height="13.06"/><rect class="cls-2" x="702.82" y="349.39" width="5.63" height="10.6"/><rect class="cls-2" x="712.61" y="349.39" width="5.63" height="10.6"/><rect class="cls-2" x="727.85" y="349.39" width="5.63" height="10.6"/><rect class="cls-2" x="737.64" y="349.39" width="5.63" height="10.6"/><rect class="cls-2" x="752.87" y="349.39" width="5.63" height="10.6"/><rect class="cls-2" x="762.66" y="349.39" width="5.24" height="10.6"/><rect class="cls-2" x="695.35" y="235.63" width="72.55" height="2.69"/><rect class="cls-2" x="695.35" y="229.24" width="72.55" height="2.68"/><rect class="cls-2" x="491.29" y="-0.27" width="0.93" height="360.26"/><rect class="cls-2" x="496.84" y="-0.27" width="0.93" height="360.26"/><rect class="cls-2" x="502.39" y="-0.27" width="0.93" height="360.26"/><rect class="cls-2" x="507.92" y="-0.27" width="0.94" height="360.26"/><rect class="cls-2" x="513.48" y="-0.27" width="0.93" height="360.26"/><rect class="cls-2" x="519.02" y="-0.27" width="0.94" height="360.26"/><rect class="cls-2" x="524.58" y="-0.27" width="0.94" height="360.26"/><rect class="cls-2" x="530.14" y="-0.27" width="0.94" height="360.26"/><rect class="cls-2" x="535.69" y="-0.27" width="0.91" height="360.26"/><rect class="cls-2" x="541.22" y="-0.27" width="0.93" height="360.26"/><rect class="cls-2" x="546.77" y="-0.27" width="0.93" height="360.26"/><rect class="cls-2" x="552.32" y="-0.27" width="0.94" height="360.26"/><rect class="cls-2" x="557.88" y="-0.27" width="0.94" height="360.26"/><rect class="cls-2" x="563.43" y="-0.27" width="0.94" height="360.26"/><rect class="cls-2" x="568.95" y="-0.27" width="0.93" height="360.26"/><rect class="cls-2" x="574.51" y="-0.27" width="0.93" height="360.26"/><rect class="cls-2" x="580.07" y="-0.27" width="0.93" height="360.26"/><path class="cls-2" d="M587.28,20.24H485v2.67H587.28Z"/><path class="cls-2" d="M587.28,56.82H485v2.67H587.28Z"/><path class="cls-2" d="M587.28,93.38H485V96H587.28Z"/><path class="cls-2" d="M587.28,130H485v2.67H587.28Z"/><path class="cls-2" d="M587.28,166.53H485v2.67H587.28Z"/><path class="cls-2" d="M587.28,203.11H485v2.67H587.28Z"/><path class="cls-2" d="M587.28,239.67H485v2.67H587.28Z"/><path class="cls-2" d="M587.28,276.25H485v2.67H587.28Z"/><path class="cls-2" d="M587.28,312.83H485v2.67H587.28Z"/><path class="cls-2" d="M587.28,349.38H485v2.67H587.28Z"/><rect class="cls-2" x="379.64" y="228.35" width="108.33" height="131.63"/><path class="cls-2" d="M475.38,206.72H392.24v17.52h83.14Z"/><path class="cls-2" d="M415.11,171.79H404.43v34.78h10.68Z"/><path class="cls-2" d="M437.5,178.78h-7.39v29.3h7.39Z"/><path class="cls-2" d="M463.19,173H452.5V207.8h10.69Z"/><path class="cls-2" d="M248.62,158.26H238.9v15.16h9.72Z"/><path class="cls-2" d="M267.39,158.26h-9.73v15.16h9.73Z"/><path class="cls-2" d="M286.15,158.26h-9.72v15.16h9.72Z"/><path class="cls-2" d="M304.91,158.26h-9.72v15.16h9.72Z"/><path class="cls-2" d="M323.67,158.26H314v15.16h9.72Z"/><path class="cls-2" d="M248.62,182.64H238.9V197.8h9.72Z"/><path class="cls-2" d="M267.39,182.64h-9.73V197.8h9.73Z"/><path class="cls-2" d="M286.15,182.64h-9.72V197.8h9.72Z"/><path class="cls-2" d="M304.91,182.64h-9.72V197.8h9.72Z"/><path class="cls-2" d="M323.67,182.64H314V197.8h9.72Z"/><path class="cls-2" d="M248.62,207H238.9v15.16h9.72Z"/><path class="cls-2" d="M267.39,207h-9.73v15.16h9.73Z"/><path class="cls-2" d="M286.15,207h-9.72v15.16h9.72Z"/><path class="cls-2" d="M304.91,207h-9.72v15.16h9.72Z"/><path class="cls-2" d="M323.67,207H314v15.16h9.72Z"/><path class="cls-2" d="M248.62,231.4H238.9v15.16h9.72Z"/><path class="cls-2" d="M267.39,231.4h-9.73v15.16h9.73Z"/><path class="cls-2" d="M286.15,231.4h-9.72v15.16h9.72Z"/><path class="cls-2" d="M304.91,231.4h-9.72v15.16h9.72Z"/><path class="cls-2" d="M323.67,231.4H314v15.16h9.72Z"/><path class="cls-2" d="M248.62,255.78H238.9v15.16h9.72Z"/><path class="cls-2" d="M267.39,255.78h-9.73v15.16h9.73Z"/><path class="cls-2" d="M286.15,255.78h-9.72v15.16h9.72Z"/><path class="cls-2" d="M304.91,255.78h-9.72v15.16h9.72Z"/><path class="cls-2" d="M323.67,255.78H314v15.16h9.72Z"/><path class="cls-2" d="M248.62,280.16H238.9v15.16h9.72Z"/><path class="cls-2" d="M267.39,280.16h-9.73v15.16h9.73Z"/><path class="cls-2" d="M286.15,280.16h-9.72v15.16h9.72Z"/><path class="cls-2" d="M304.91,280.16h-9.72v15.16h9.72Z"/><path class="cls-2" d="M323.67,280.16H314v15.16h9.72Z"/><path class="cls-2" d="M248.62,304.54H238.9V319.7h9.72Z"/><path class="cls-2" d="M267.39,304.54h-9.73V319.7h9.73Z"/><path class="cls-2" d="M286.15,304.54h-9.72V319.7h9.72Z"/><path class="cls-2" d="M304.91,304.54h-9.72V319.7h9.72Z"/><path class="cls-2" d="M323.67,304.54H314V319.7h9.72Z"/><path class="cls-2" d="M248.62,328.92H238.9v15.16h9.72Z"/><path class="cls-2" d="M267.39,328.92h-9.73v15.16h9.73Z"/><path class="cls-2" d="M286.15,328.92h-9.72v15.16h9.72Z"/><path class="cls-2" d="M304.91,328.92h-9.72v15.16h9.72Z"/><path class="cls-2" d="M323.67,328.92H314v15.16h9.72Z"/><rect class="cls-2" x="238.9" y="353.3" width="9.72" height="6.69"/><rect class="cls-2" x="257.66" y="353.3" width="9.72" height="6.69"/><rect class="cls-2" x="276.43" y="353.3" width="9.72" height="6.69"/><rect class="cls-2" x="295.19" y="353.3" width="9.72" height="6.69"/><rect class="cls-2" x="313.95" y="353.3" width="9.72" height="6.69"/><rect class="cls-2" x="333.19" y="298.03" width="0.92" height="61.95"/><rect class="cls-2" x="338.9" y="298.03" width="0.92" height="61.95"/><rect class="cls-2" x="344.61" y="298.03" width="0.92" height="61.95"/><rect class="cls-2" x="350.32" y="298.03" width="0.92" height="61.95"/><rect class="cls-2" x="356.03" y="298.03" width="0.92" height="61.95"/><rect class="cls-2" x="361.73" y="298.03" width="0.92" height="61.95"/><rect class="cls-2" x="367.44" y="298.03" width="0.92" height="61.95"/><rect class="cls-2" x="373.16" y="298.03" width="0.92" height="61.95"/><rect class="cls-2" x="378.87" y="298.03" width="0.92" height="61.95"/><rect class="cls-2" x="384.58" y="298.03" width="0.92" height="61.95"/><rect class="cls-2" x="695.75" y="328.77" width="72.14" height="0.52"/><rect class="cls-2" x="695.75" y="332.4" width="72.14" height="0.52"/><rect class="cls-2" x="695.75" y="336.01" width="72.14" height="0.52"/><rect class="cls-2" x="695.75" y="339.64" width="72.14" height="0.52"/><rect class="cls-2" x="695.75" y="343.27" width="72.14" height="0.51"/><rect class="cls-2" x="695.75" y="346.89" width="72.14" height="0.52"/><rect class="cls-2" x="695.75" y="350.52" width="72.14" height="0.52"/><rect class="cls-2" x="695.75" y="354.13" width="72.14" height="0.52"/><rect class="cls-2" x="695.75" y="357.76" width="72.14" height="0.52"/><rect class="cls-2" x="661.38" y="351.85" width="106.52" height="1.7"/><rect class="cls-2" x="661.38" y="355.12" width="106.52" height="1.69"/><rect class="cls-2" x="671.03" y="349.84" width="2.23" height="10.14"/><rect class="cls-2" x="697.72" y="349.84" width="2.22" height="10.14"/><rect class="cls-2" x="724.38" y="349.84" width="2.25" height="10.14"/><rect class="cls-2" x="751.07" y="349.84" width="2.22" height="10.14"/><rect class="cls-2" x="476.45" y="270.45" width="91.44" height="89.54"/><path class="cls-2" d="M491.82,279.33h-9.9v30.26h9.9Z"/><path class="cls-2" d="M506.6,279.33h-9.9v30.26h9.9Z"/><path class="cls-2" d="M529,279.33h-14.6v30.26H529Z"/><path class="cls-2" d="M546.61,279.33h-9.9v30.26h9.9Z"/><path class="cls-2" d="M561.39,279.33H551.5v30.26h9.89Z"/><path class="cls-2" d="M567.89,313.39H476.45v1.91h91.44Z"/><path class="cls-2" d="M567.89,318.53H476.45v1.91h91.44Z"/><path class="cls-2" d="M491.82,326.16h-9.9v30.25h9.9Z"/><path class="cls-2" d="M506.6,326.16h-9.9v30.25h9.9Z"/><path class="cls-2" d="M529,326.16h-14.6v30.25H529Z"/><path class="cls-2" d="M546.61,326.16h-9.9v30.25h9.9Z"/><path class="cls-2" d="M561.39,326.16H551.5v30.25h9.89Z"/></g><path class="cls-2" d="M720.5,360V297.77l-12.79-16.3v-44.8H681.83v37.67l-1.14,1.45-1,1.26-4,5.1v58.62H662.58V283.71H650V271.64H615.22v12.07H604.48V306h-12V241.75l-7.37-16.28V188.12L568.67,159,549.5,188.12V330.4H534.4v-111h-7V189.66h-4.9V121.92h-21V41.87h-3.12v80.05h-21v67.74h-4.91v29.76h-7v95.12H448.92V225.47l-5.47-1.21V209.58l-31.93-10.33v17.94l-10.33-2.29-9.82,10.57V340.16H381V291h-5.39V280.92H371l-.93-6.11h-2.32v-8.05H347.57v8.05h-8.41v-8.05h-8.44v8.05h-2.33l-.92,6.11h-4.64V291h-5.39v36.36H307.6V308.52l-38.16-13.07h-2.12v-5.16h-9.61v5.16H255.5V360Z"/></svg>