<?xml version="1.0" encoding="utf-8"?>
<!-- Generator: Adobe Illustrator 24.2.3, SVG Export Plug-In . SVG Version: 6.00 Build 0)  -->
<svg version="1.1" id="Layer_1" xmlns="http://www.w3.org/2000/svg" xmlns:xlink="http://www.w3.org/1999/xlink" x="0px" y="0px"
	 viewBox="0 0 42 42" style="enable-background:new 0 0 42 42;" xml:space="preserve">
<style type="text/css">
	.st0{fill:none;stroke:#1E1D23;stroke-width:3.5;stroke-linecap:round;stroke-linejoin:round;}
</style>
<path class="st0" d="M17.5,8.7L21,5.2 M14,28l14-14 M21,36.7l3.5-3.5 M28.9,33.2c2.4,0,4.4-2,4.4-4.4s-2-4.4-4.4-4.4s-4.4,2-4.4,4.4
	S26.5,33.2,28.9,33.2z M13.1,17.5c2.4,0,4.4-2,4.4-4.4s-2-4.4-4.4-4.4s-4.4,2-4.4,4.4S10.7,17.5,13.1,17.5z M9.6,36.7
	c2.4,0,4.4-2,4.4-4.4S12,28,9.6,28c-2.4,0-4.4,2-4.4,4.4S7.2,36.7,9.6,36.7z M32.4,14c2.4,0,4.4-2,4.4-4.4c0-2.4-2-4.4-4.4-4.4
	S28,7.2,28,9.6C28,12,30,14,32.4,14z"/>
</svg>
