<?xml version="1.0" encoding="utf-8"?>
<!-- Generator: Adobe Illustrator 24.2.3, SVG Export Plug-In . SVG Version: 6.00 Build 0)  -->
<svg version="1.1" id="Layer_1" xmlns="http://www.w3.org/2000/svg" xmlns:xlink="http://www.w3.org/1999/xlink" x="0px" y="0px"
	 viewBox="0 0 37 37" style="enable-background:new 0 0 37 37;" xml:space="preserve">
<style type="text/css">
	.st0{clip-path:url(#SVGID_2_);}
	.st1{fill:#1E1D23;}
</style>
<g>
	<defs>
		<rect id="SVGID_1_" y="0" width="37" height="37"/>
	</defs>
	<clipPath id="SVGID_2_">
		<use xlink:href="#SVGID_1_"  style="overflow:visible;"/>
	</clipPath>
	<g class="st0">
		<path class="st1" d="M35.9,15.5h-0.3c0,0,0,0-0.1-0.1l-4-3.7V6.3c0,0,0-0.1,0-0.1c0,0,0,0,0,0c0,0,0-0.1,0-0.1l-0.2-1
			c-0.1-0.3-0.5-0.5-1-0.4c0,0-4.9,0.9-9,1.6V5.1c0-0.6-0.5-1.1-1.1-1.1h-3.7L14,0.6l0,0c-0.1-0.2-0.4-0.3-0.6-0.2
			c0,0-0.1,0-0.1,0.1c0,0,0,0,0,0c-0.1,0-0.1,0.1-0.1,0.1L10.7,4H6.9C6.3,4,5.8,4.5,5.8,5.1v4.4c-2.8,0.6-5,1.1-5,1.1
			c-0.5,0.1-0.8,0.4-0.7,0.8l0.2,1c0.1,0.3,0.5,0.5,1,0.4c0,0,2-0.4,4.6-0.8v2c0,0.6,0.5,1.1,1.1,1.1h2.2v0.1c0,0,0-0.1,0-0.1h0
			c0,0,0,0.1,0,0.1l0,19.9c0,0.8,0.7,1.5,1.5,1.5h5.9c0.8,0,1.5-0.6,1.5-1.5V15.3v-0.1h2.2c0.6,0,1.1-0.5,1.1-1.1V9
			c3.4-0.8,7.4-1.7,8.9-2v4.7l-4,3.7c0,0,0,0-0.1,0.1h-0.3c-0.6,0-1.1,0.5-1.1,1.1v10c0,0.6,0.5,1.1,1.1,1.1h10
			c0.6,0,1.1-0.5,1.1-1.1v-10C37,16,36.5,15.5,35.9,15.5z M13.6,1.8L15.1,4H12L13.6,1.8z M13.6,24.5l-3-2.6l3-2.6l3,2.6L13.6,24.5z
			 M13.6,25.9l3,2.6l-3,2.6l-3-2.6L13.6,25.9z M10.3,15.1h6.4l-3.2,2.7L10.3,15.1z M10.2,16.4l2.5,2.1l-2.5,2.1V16.4z M10.2,23.1
			l2.5,2.1l-2.5,2.1V23.1z M10.2,29.7l2.5,2.1L10.2,34V29.7z M16.5,35.5h-5.9c-0.1,0-0.2-0.1-0.3-0.2l3.3-2.8l3.3,2.8
			C16.8,35.5,16.6,35.5,16.5,35.5z M16.9,34l-2.5-2.1l2.5-2.1V34z M16.9,27.3l-2.5-2.1l2.5-2.1V27.3z M16.9,20.7l-2.5-2.1l2.5-2.1
			V20.7z M17.9,28.2C17.9,28.2,17.9,28.2,17.9,28.2C17.9,28.2,17.9,28.2,17.9,28.2C17.9,28.2,17.9,28.2,17.9,28.2z M17.9,21.6
			C17.9,21.5,17.9,21.5,17.9,21.6C17.9,21.5,17.9,21.5,17.9,21.6C17.9,21.6,17.9,21.6,17.9,21.6z M18.5,9.5
			C18.5,9.5,18.5,9.5,18.5,9.5c0,0.3-0.2,0.4-0.4,0.4h-5.8c-0.2,0-0.4-0.2-0.4-0.4V6.9c0-0.2,0.2-0.4,0.4-0.4h5.8
			c0.2,0,0.4,0.1,0.4,0.3c0,0,0,0,0,0.1V9.5z M30.2,15.5h-2l2-1.9V15.5z M31.6,15.5v-1.9l2,1.9H31.6z"/>
	</g>
</g>
</svg>
