<svg id="Layer_1" data-name="Layer 1" xmlns="http://www.w3.org/2000/svg" xmlns:xlink="http://www.w3.org/1999/xlink" viewBox="0 0 51 51"><defs><style>.cls-1{fill:none;}.cls-2{clip-path:url(#clip-path);}.cls-3{fill:#20cfff;}</style><clipPath id="clip-path"><rect class="cls-1" width="50.65" height="50.65"/></clipPath></defs><g class="cls-2"><path class="cls-3" d="M25.33,2.11s-19,5.38-19,6.33V27.65c0,9.7,14,18.25,17.94,20.57a1.9,1.9,0,0,0,2.11,0c4-2.21,17.94-10.87,17.94-20.57V8.44C44.32,7.49,25.33,2.11,25.33,2.11Zm9.91,17.31L23.64,31a2,2,0,0,1-.67.48,2,2,0,0,1-1.62,0,2,2,0,0,1-.67-.48l-5.17-5.17a2.28,2.28,0,0,1-.7-1.35,2.31,2.31,0,0,1,.28-1.5,2.09,2.09,0,0,1,1.58-.88,2.19,2.19,0,0,1,.92.14,2.08,2.08,0,0,1,.77.53l3.8,3.8L32.29,16.46A2.18,2.18,0,0,1,33.71,16a2.15,2.15,0,0,1,1.34.62,2.11,2.11,0,0,1,.19,2.76Z"/></g></svg>