<svg id="Layer_1" data-name="Layer 1" xmlns="http://www.w3.org/2000/svg" viewBox="0 0 52 52"><defs><style>.cls-1{fill:#20cfff;}</style></defs><path class="cls-1" d="M38.1,7l-.82.91L42,12.13l.83-.91Z"/><path class="cls-1" d="M6.34,40.63a4.11,4.11,0,1,0,6,5.46l12-13.81-5.44-4.9Z"/><path class="cls-1" d="M32.74,13.07,25,21.24l5.1,4.6,7.35-8.47Z"/><path class="cls-1" d="M45.31,36.36a6.31,6.31,0,0,0-4.73-1.67,6.94,6.94,0,0,0-1.83.34L16.19,14.37a7,7,0,0,0,.15-1.83A6.34,6.34,0,0,0,14.21,8a6.26,6.26,0,0,0-4.7-1.67,7,7,0,0,0-1.86.35l5.25,4.75L8.25,16.58,3,11.83a6.9,6.9,0,0,0-.17,1.86A6.31,6.31,0,0,0,4.94,18.2a6.3,6.3,0,0,0,4.71,1.66,6.76,6.76,0,0,0,2-.39L32.87,38.88l0,0,1.28,1.17a6.94,6.94,0,0,0-.19,2A6.33,6.33,0,0,0,36,46.58a6.24,6.24,0,0,0,4.71,1.67,6.81,6.81,0,0,0,1.83-.35l-5.25-4.76L42,38l5.25,4.75a6.9,6.9,0,0,0,.17-1.86A6.29,6.29,0,0,0,45.31,36.36Z"/><path class="cls-1" d="M49.56,18.73a4.39,4.39,0,0,0-1.22-2.51L48,15.86l-2.24-2-1,1.06-.11.12-.11-.1-6.73-6.1h0l-3.45-3.1L31.85,3.48,28,7.8l5.93,5.34,6.82,6.18h0l-1,1.07L42,22.47l.33.31a4.48,4.48,0,0,0,2.67,1h.16a4.47,4.47,0,0,0,4.47-4.46C49.6,19.13,49.59,18.93,49.56,18.73Z"/></svg>