<svg id="Layer_1" data-name="Layer 1" xmlns="http://www.w3.org/2000/svg" viewBox="0 0 61 61"><defs><style>.cls-1{fill:#20cfff;}</style></defs><path class="cls-1" d="M33,49.15v5.08A2.54,2.54,0,0,1,28.68,56a2.54,2.54,0,0,1-.75-1.8V49.15H22.85v5.08a2.53,2.53,0,0,1-.74,1.8,2.55,2.55,0,0,1-3.59,0,2.53,2.53,0,0,1-.74-1.8V49.15a3,3,0,0,1,0-.42A7.65,7.65,0,0,1,13.12,44a2,2,0,0,1-.42,0H7.62a2.54,2.54,0,1,1,0-5.08H12.7V33.92H7.62a2.54,2.54,0,1,1,0-5.08H12.7V23.76H7.62a2.53,2.53,0,0,1-2.54-2.54,2.54,2.54,0,0,1,2.54-2.54H12.7a3,3,0,0,1,.42,0A7.63,7.63,0,0,1,17.81,14a3,3,0,0,1,0-.42V8.53a2.53,2.53,0,0,1,.74-1.8,2.55,2.55,0,0,1,3.59,0,2.53,2.53,0,0,1,.74,1.8v5.08h5.08V8.53A2.54,2.54,0,0,1,30.47,6,2.53,2.53,0,0,1,33,8.53v5.08h5.08V8.53a2.54,2.54,0,0,1,4.33-1.8,2.54,2.54,0,0,1,.75,1.8v5.08a3,3,0,0,1,0,.42,7.61,7.61,0,0,1,4.69,4.69,2,2,0,0,1,.43,0h5.07a2.53,2.53,0,0,1,1.8.75,2.55,2.55,0,0,1,0,3.59,2.57,2.57,0,0,1-1.8.74H48.25v5.08h5.07a2.54,2.54,0,1,1,0,5.08H48.25V39h5.07a2.54,2.54,0,0,1,0,5.08H48.25a3,3,0,0,1-.43,0A7.45,7.45,0,0,1,46,46.92a7.61,7.61,0,0,1-2.88,1.81,2,2,0,0,1,0,.42v5.08a2.54,2.54,0,0,1-2.54,2.54,2.53,2.53,0,0,1-2.54-2.54V49.15ZM25.39,23.76a2.56,2.56,0,0,0-2.54,2.54V36.46A2.56,2.56,0,0,0,25.39,39H35.55a2.54,2.54,0,0,0,2.54-2.54V26.3a2.54,2.54,0,0,0-2.54-2.54Z"/></svg>