<svg id="Layer_1" data-name="Layer 1" xmlns="http://www.w3.org/2000/svg" viewBox="0 0 275 48"><defs><style>.cls-1{fill:#1376c8;}.cls-2,.cls-3{fill:#1e1d23;}.cls-3{fill-rule:evenodd;}</style></defs><path class="cls-1" d="M15.5,1.37,21.1,7V29.31L8.64,34.26,0,31.57l12.74-7.4Z"/><path class="cls-1" d="M29.53,1.37,23.94,7V29.31L36.4,34.26,45,31.57l-12.74-7.4Z"/><path class="cls-1" d="M36.09,36.54,22.6,31.45,9.12,36.54l-5.8,10,19.28-6,19.29,6Z"/><path class="cls-2" d="M73.21,11.18v3.26h-8.4V19.6h6.44v3.21H64.81v8.51h-4V11.18Z"/><path class="cls-2" d="M82.13,15.83A5.64,5.64,0,0,1,85,15.11v4.24H83.93a4.1,4.1,0,0,0-2.87.9,4.12,4.12,0,0,0-1,3.11v8h-4v-16h4v2.48A5.69,5.69,0,0,1,82.13,15.83Z"/><path class="cls-3" d="M87.64,19a7.07,7.07,0,0,1,2.63-2.88,6.88,6.88,0,0,1,3.7-1,6.38,6.38,0,0,1,3.13.73,6.28,6.28,0,0,1,2.15,1.81V15.34h4.07v16H99.25V29a5.93,5.93,0,0,1-2.15,1.85,6.54,6.54,0,0,1-3.15.74,6.87,6.87,0,0,1-3.68-1,7.37,7.37,0,0,1-2.63-2.94,9.39,9.39,0,0,1-1-4.33A9.34,9.34,0,0,1,87.64,19Zm11,1.83a4.1,4.1,0,0,0-1.56-1.61,4.21,4.21,0,0,0-4.18,0,4,4,0,0,0-1.54,1.6,5,5,0,0,0-.6,2.5,5.11,5.11,0,0,0,.6,2.52A4.15,4.15,0,0,0,93,27.45,3.9,3.9,0,0,0,95,28a4.09,4.09,0,0,0,2.1-.57,4,4,0,0,0,1.56-1.61,5.17,5.17,0,0,0,.58-2.53A5.14,5.14,0,0,0,98.67,20.8Z"/><path class="cls-3" d="M116.69,15.79a5.88,5.88,0,0,1,2.13,1.83V15.34h4.06v16.1a8.64,8.64,0,0,1-.89,4,6.58,6.58,0,0,1-2.69,2.77,8.56,8.56,0,0,1-4.31,1,9.29,9.29,0,0,1-5.59-1.58,5.89,5.89,0,0,1-2.47-4.33h4A3,3,0,0,0,112.31,35a4.84,4.84,0,0,0,2.56.64,4,4,0,0,0,2.85-1,4.26,4.26,0,0,0,1.1-3.19V29a6.14,6.14,0,0,1-2.16,1.88,6.32,6.32,0,0,1-3.12.75,6.93,6.93,0,0,1-3.69-1,7.25,7.25,0,0,1-2.64-2.94,9.27,9.27,0,0,1-1-4.33,9.22,9.22,0,0,1,1-4.31,7,7,0,0,1,2.63-2.88,6.9,6.9,0,0,1,3.7-1A6.77,6.77,0,0,1,116.69,15.79Zm1.54,5a4.19,4.19,0,0,0-1.54-1.61,4.25,4.25,0,0,0-2.12-.56A4.08,4.08,0,0,0,111,20.78a5.05,5.05,0,0,0-.59,2.5A5.21,5.21,0,0,0,111,25.8a4.29,4.29,0,0,0,1.56,1.65,4,4,0,0,0,2.06.59,4.16,4.16,0,0,0,2.12-.57,4.05,4.05,0,0,0,1.54-1.61,5.17,5.17,0,0,0,.59-2.53A5.14,5.14,0,0,0,118.23,20.8Z"/><path class="cls-3" d="M126.75,19a7.14,7.14,0,0,1,2.63-2.88,6.91,6.91,0,0,1,3.71-1,6.41,6.41,0,0,1,3.13.73,6.24,6.24,0,0,1,2.14,1.81V15.34h4.07v16h-4.07V29a5.9,5.9,0,0,1-2.14,1.85,6.61,6.61,0,0,1-3.16.74,6.87,6.87,0,0,1-3.68-1,7.45,7.45,0,0,1-2.63-2.94,9.39,9.39,0,0,1-1-4.33A9.34,9.34,0,0,1,126.75,19Zm11,1.83a4.1,4.1,0,0,0-1.56-1.61,4.21,4.21,0,0,0-4.18,0,4,4,0,0,0-1.54,1.6,5.05,5.05,0,0,0-.59,2.5,5.21,5.21,0,0,0,.59,2.52,4.15,4.15,0,0,0,1.56,1.65,3.9,3.9,0,0,0,2.06.59,4.09,4.09,0,0,0,2.1-.57,4,4,0,0,0,1.56-1.61,5.28,5.28,0,0,0,.57-2.53A5.25,5.25,0,0,0,137.79,20.8Z"/><path class="cls-2" d="M152.45,15.83a5.65,5.65,0,0,1,2.86-.72v4.24h-1.06a4.08,4.08,0,0,0-2.87.9,4.12,4.12,0,0,0-1,3.11v8h-4v-16h4v2.48A5.88,5.88,0,0,1,152.45,15.83Z"/><path class="cls-2" d="M178.6,11.18v3.26h-5.36V31.32h-4.05V14.44h-5.36V11.18Z"/><path class="cls-2" d="M187.63,15.83a5.65,5.65,0,0,1,2.86-.72v4.24h-1.06a4.06,4.06,0,0,0-2.87.9,4.08,4.08,0,0,0-1,3.11v8h-4v-16h4v2.48A5.72,5.72,0,0,1,187.63,15.83Z"/><path class="cls-3" d="M193.12,19a7.12,7.12,0,0,1,2.62-2.88,7,7,0,0,1,3.71-1,6.43,6.43,0,0,1,3.13.73,6.06,6.06,0,0,1,2.14,1.81V15.34h4.07v16h-4.07V29a5.9,5.9,0,0,1-2.14,1.85,6.61,6.61,0,0,1-3.16.74,6.92,6.92,0,0,1-3.68-1,7.43,7.43,0,0,1-2.62-2.94,9.39,9.39,0,0,1-1-4.33A9.34,9.34,0,0,1,193.12,19Zm11,1.83a4.24,4.24,0,0,0-1.56-1.61,4.21,4.21,0,0,0-4.18,0,4,4,0,0,0-1.54,1.6,5.05,5.05,0,0,0-.59,2.5,5.21,5.21,0,0,0,.59,2.52,4.15,4.15,0,0,0,1.56,1.65,3.88,3.88,0,0,0,2.06.59,4.17,4.17,0,0,0,3.66-2.18,5.28,5.28,0,0,0,.57-2.53A5.25,5.25,0,0,0,204.15,20.8Z"/><path class="cls-3" d="M212.68,19A6.93,6.93,0,0,1,219,15.07a6.74,6.74,0,0,1,3,.68,6,6,0,0,1,2.25,1.8V10h4.09V31.31h-4.09V28.94a5.44,5.44,0,0,1-2.11,1.91,6.64,6.64,0,0,1-3.14.72,6.91,6.91,0,0,1-3.7-1,7.16,7.16,0,0,1-2.64-2.93,9.43,9.43,0,0,1-1-4.34A9.29,9.29,0,0,1,212.68,19Zm11,1.83a4,4,0,0,0-1.56-1.61,4.24,4.24,0,0,0-2.11-.56,4.07,4.07,0,0,0-2.08.55,4,4,0,0,0-1.53,1.6,4.94,4.94,0,0,0-.6,2.49,5.08,5.08,0,0,0,.6,2.52A4.17,4.17,0,0,0,218,27.44a3.86,3.86,0,0,0,2.05.58,4.14,4.14,0,0,0,2.11-.56,3.93,3.93,0,0,0,1.56-1.62,5.21,5.21,0,0,0,.57-2.52A5.25,5.25,0,0,0,223.72,20.79Z"/><path class="cls-2" d="M232.57,12.75a2.22,2.22,0,0,1-.7-1.69,2.19,2.19,0,0,1,.7-1.67,2.43,2.43,0,0,1,1.78-.68,2.46,2.46,0,0,1,1.78.68,2.19,2.19,0,0,1,.7,1.67,2.22,2.22,0,0,1-.7,1.69,2.46,2.46,0,0,1-1.78.68A2.43,2.43,0,0,1,232.57,12.75Zm3.77,2.58v16h-4v-16Z"/><path class="cls-2" d="M253.8,16.91a6.92,6.92,0,0,1,1.76,5v9.37h-4V22.49a4.09,4.09,0,0,0-1-2.92,3.36,3.36,0,0,0-2.6-1,3.45,3.45,0,0,0-2.64,1,4.1,4.1,0,0,0-1,2.92v8.83h-4.05v-16h4.05v2a5.72,5.72,0,0,1,2.06-1.63,6.48,6.48,0,0,1,2.76-.59A6.15,6.15,0,0,1,253.8,16.91Z"/><path class="cls-3" d="M268.8,15.79a5.8,5.8,0,0,1,2.13,1.83V15.34H275v16.1a8.64,8.64,0,0,1-.89,4,6.64,6.64,0,0,1-2.69,2.77,8.6,8.6,0,0,1-4.32,1,9.33,9.33,0,0,1-5.59-1.58,5.88,5.88,0,0,1-2.46-4.33h4A3,3,0,0,0,264.42,35a4.82,4.82,0,0,0,2.56.64,4,4,0,0,0,2.86-1,4.25,4.25,0,0,0,1.09-3.19V29a6.1,6.1,0,0,1-2.15,1.88,6.38,6.38,0,0,1-3.13.75,7,7,0,0,1-3.69-1,7.25,7.25,0,0,1-2.64-2.94,9.39,9.39,0,0,1-1-4.33,9.34,9.34,0,0,1,1-4.31A7,7,0,0,1,262,16.09a6.88,6.88,0,0,1,3.7-1A6.77,6.77,0,0,1,268.8,15.79Zm1.56,5a4.24,4.24,0,0,0-1.56-1.61,4.28,4.28,0,0,0-2.12-.56,4.16,4.16,0,0,0-2.07.55,4,4,0,0,0-1.54,1.6,5,5,0,0,0-.59,2.5,5.1,5.1,0,0,0,.59,2.52,4.15,4.15,0,0,0,1.56,1.65,3.9,3.9,0,0,0,2.05.59,4.19,4.19,0,0,0,2.12-.57,4.1,4.1,0,0,0,1.56-1.61,5.28,5.28,0,0,0,.57-2.53A5.25,5.25,0,0,0,270.36,20.8Z"/></svg>