<?xml version="1.0" encoding="utf-8"?>
<!-- Generator: Adobe Illustrator 24.2.3, SVG Export Plug-In . SVG Version: 6.00 Build 0)  -->
<svg version="1.1" id="Layer_1" xmlns="http://www.w3.org/2000/svg" xmlns:xlink="http://www.w3.org/1999/xlink" x="0px" y="0px"
	 viewBox="0 0 38 38" style="enable-background:new 0 0 38 38;" xml:space="preserve">
<style type="text/css">
	.st0{fill:#1E1D23;}
</style>
<path class="st0" d="M34.4,8.3h-5.9V6.2c0-0.2-0.1-0.3-0.3-0.3h-2.1c-0.2,0-0.3,0.1-0.3,0.3v2.1h-5.5V6.2c0-0.2-0.1-0.3-0.3-0.3H18
	c-0.2,0-0.3,0.1-0.3,0.3v2.1h-5.5V6.2c0-0.2-0.1-0.3-0.3-0.3H9.8c-0.2,0-0.3,0.1-0.3,0.3v2.1H3.6c-0.7,0-1.2,0.5-1.2,1.2v21.4
	c0,0.7,0.5,1.2,1.2,1.2h30.9c0.7,0,1.2-0.5,1.2-1.2V9.5C35.6,8.8,35.1,8.3,34.4,8.3z M15.7,25.5c0,0.2-0.1,0.3-0.3,0.3H8.6
	c-0.2,0-0.3-0.1-0.3-0.3v-1.8c0-0.2,0.1-0.3,0.3-0.3h6.8c0.2,0,0.3,0.1,0.3,0.3V25.5z M15.7,20.5c0,0.2-0.1,0.3-0.3,0.3H8.6
	c-0.2,0-0.3-0.1-0.3-0.3v-1.8c0-0.2,0.1-0.3,0.3-0.3h6.8c0.2,0,0.3,0.1,0.3,0.3V20.5z M29.6,17.1l-6.1,8.5c-0.1,0.1-0.1,0.1-0.2,0.2
	s-0.2,0.1-0.3,0.1s-0.2,0-0.3-0.1c-0.1,0-0.2-0.1-0.2-0.2l-4.2-5.9c-0.1-0.2,0-0.5,0.2-0.5h2c0.2,0,0.4,0.1,0.5,0.2l2,2.7l3.8-5.3
	c0.1-0.2,0.3-0.2,0.5-0.2h2C29.6,16.6,29.8,16.9,29.6,17.1z"/>
</svg>
