<svg width="63" height="78" viewBox="0 0 63 78" fill="none" xmlns="http://www.w3.org/2000/svg">
<path d="M63 19.3848V67.8457C63 73.1983 58.6602 77.5381 53.3076 77.5381H9.69238C4.33981 77.5381 0 73.1983 0 67.8457V9.69238C0 4.33981 4.33981 0 9.69238 0C9.7504 0.0001171 43.2949 0.0673615 43.6152 0.0673828V0L63 19.3848ZM31.4961 59.3477L31.4795 59.3154L30.6201 61.0576L28.6973 61.3369L30.0889 62.6934L29.7607 64.6074L29.7959 64.5889L29.792 64.6074L31.4961 63.7119L33.1992 64.6074L33.1963 64.5889L33.2314 64.6074L32.9033 62.6934L34.2939 61.3369L32.3721 61.0576L31.5117 59.3154L31.4961 59.3477ZM22.5508 58.8984L20.6289 59.1787L22.0195 60.5342L21.6914 62.4492L23.4111 61.5449L25.1309 62.4492L24.8018 60.5342L26.1934 59.1787L24.2705 58.8984L23.4111 57.1562L22.5508 58.8984ZM38.7207 58.8984L36.7979 59.1787L38.1895 60.5342L37.8613 62.4492L39.5811 61.5449L41.2998 62.4492L40.9717 60.5342L42.3633 59.1787L40.4404 58.8984L39.5811 57.1562L38.7207 58.8984ZM16.4258 52.8877L14.5029 53.168L15.8945 54.5234L15.5664 56.4385L17.2852 55.5342L19.0049 56.4385L18.6768 54.5234L20.0684 53.168L18.1455 52.8877L17.2852 51.1465L16.4258 52.8877ZM44.8467 52.8877L42.9238 53.168L44.3154 54.5234L43.9863 56.4385L45.7061 55.5342L47.4258 56.4385L47.0977 54.5234L48.4883 53.168L46.5654 52.8887L45.7061 51.1465L44.8467 52.8877ZM14.2314 44.6689L12.3096 44.9492L13.7002 46.3047L13.3721 48.2197L15.0918 47.3154L16.8115 48.2197L16.4824 46.3047L17.874 44.9492L15.9512 44.6689L15.0918 42.9277L14.2314 44.6689ZM47.9004 42.9268L47.04 44.6689L45.1182 44.9492L46.5088 46.3047L46.1807 48.2197L47.9004 47.3154L49.6201 48.2197L49.291 46.3047L50.6826 44.9482L48.7598 44.6689L47.9004 42.9268ZM16.4258 36.5791L14.5029 36.8584L15.8945 38.2139L15.5664 40.1289L17.2852 39.2246L19.0049 40.1289L18.6768 38.2139L20.0684 36.8584L18.1455 36.5791L17.2852 34.8369L16.4258 36.5791ZM44.8467 36.5791L42.9238 36.8584L44.3145 38.2139L43.9863 40.1289L45.7061 39.2246L47.4258 40.1289L47.0967 38.2139L48.4883 36.8584L46.5654 36.5791L45.7061 34.8369L44.8467 36.5791ZM22.5508 30.415L20.6289 30.6943L22.0195 32.0498L21.6914 33.9648L23.4111 33.0605L25.1309 33.9648L24.8018 32.0498L26.1934 30.6943L24.2705 30.415L23.4111 28.6729L22.5508 30.415ZM38.7207 30.415L36.7988 30.6943L38.1895 32.0498L37.8613 33.9648L39.5811 33.0605L41.2998 33.9648L40.9717 32.0498L42.3633 30.6943L40.4404 30.415L39.5811 28.6729L38.7207 30.415ZM30.6357 28.0078L28.7139 28.2871L30.1045 29.6436L29.7764 31.5586L31.4961 30.6543L33.2158 31.5586L32.8867 29.6436L34.2783 28.2871L32.3555 28.0078L31.4961 26.2656L30.6357 28.0078ZM43.6152 14.5381C43.6152 17.2132 45.7868 19.3848 48.4619 19.3848H58.1543L43.6152 4.8457V14.5381Z" fill="#234B6C"/>
</svg>
